# xmcd
#
# Track frame offsets:
#	150
#	21327
#	38591
#	51818
#	71020
#	91510
#	108249
#	126401
#	145316
#	165418
#	186470
#	202522
#	220761
#	241313
#	257753
#	276117
#	295207
#	311546
#
# Disc length: 4380 seconds
#
# Revision: 0
# Processed by: cddbd v1.5.2PL0 Copyright (c) Steve Scherf et al.
# Submitted via: EasyCDDAExtractor 12.0.0.1
#
DISCID=fe111a12
DTITLE=Various Artist - Lover's Duets 18
DYEAR=1900
DGENRE=Pop
TTITLE0=Jackie Cray and John Waikero - I want to spend my lifetime loving you
TTITLE1=Lilly Patrick and Tom Short - When you tell me that you love me
TTITLE2=Kelly Lavelle and Adam Webster - You are the love of my life
TTITLE3=Redney Baltimore and Lauryn Maxx - A whole new world (Aladdin's theme)
TTITLE4=Phil Mald and Rosie Roe - Endless love
TTITLE5=Waldo Riley and Diana Royce - Tonight I celebrate my love for you
TTITLE6=Don Sting and Nicole Cee - Somewhere out there
TTITLE7=Ted Calla and Bianca Wilson - Up where we belong
TTITLE8=Belinda Key and Chet Black - In love with you
TTITLE9=Karen Mitchell and Frank Pipe - On my own
TTITLE10=Jamie and Sabor - With you I'm born again
TTITLE11=Vanessa Turner and Keith Middleton - Beauty and the beast
TTITLE12=Holly Preen and Joan Curtis - Friends for life (Amigos para siempre)
TTITLE13=Gary Lewis and Joan Curtis - Don't know much
TTITLE14=Jessica K and Ray Bryan - Especially for you
TTITLE15=Jay Max and Shania Blue - I'll be there
TTITLE16=Rob McClliure and Kate Louse - At the beginning
TTITLE17=Jim Coxx and Saran Maye - I finally find someone
EXTD=
EXTT0=
EXTT1=
EXTT2=
EXTT3=
EXTT4=
EXTT5=
EXTT6=
EXTT7=
EXTT8=
EXTT9=
EXTT10=
EXTT11=
EXTT12=
EXTT13=
EXTT14=
EXTT15=
EXTT16=
EXTT17=
PLAYORDER=
